<?xml version="1.0" encoding="UTF-8"?>
<svg width="1024" height="1024" viewBox="0 0 1024 1024" fill="none" xmlns="http://www.w3.org/2000/svg">
  <!-- Navy blue background -->
  <rect width="1024" height="1024" rx="230" fill="#0F172A"/>
  
  <!-- Gradient definitions -->
  <defs>
    <linearGradient id="goldGradient" x1="0%" y1="0%" x2="100%" y2="100%">
      <stop offset="0%" style="stop-color:#F59E0B;stop-opacity:1" />
      <stop offset="100%" style="stop-color:#D97706;stop-opacity:1" />
    </linearGradient>
    <radialGradient id="bgGlow" cx="50%" cy="50%" r="40%">
      <stop offset="0%" style="stop-color:#1E293B;stop-opacity:0.8" />
      <stop offset="100%" style="stop-color:#0F172A;stop-opacity:1" />
    </radialGradient>
  </defs>
  
  <!-- Background glow -->
  <rect width="1024" height="1024" rx="230" fill="url(#bgGlow)"/>
  
  <!-- Main design -->
  <g transform="translate(512, 512)">
    <!-- Outer circle border -->
    <circle cx="0" cy="0" r="250" 
            stroke="url(#goldGradient)" 
            stroke-width="3" 
            fill="none" 
            opacity="0.6"/>
    
    <!-- Inner circle border -->
    <circle cx="0" cy="0" r="200" 
            stroke="url(#goldGradient)" 
            stroke-width="2" 
            fill="none" 
            opacity="0.4"/>
    
    <!-- QC monogram - overlapping letters -->
    <g fill="url(#goldGradient)">
      <!-- Q -->
      <path d="M -60,-120 Q -140,-120 -140,-40 L -140,40 Q -140,120 -60,120 L 0,120 Q 80,120 80,40 L 80,-40 Q 80,-120 0,-120 L -60,-120 Z M -60,-60 L 0,-60 Q 20,-60 20,-40 L 20,40 Q 20,60 0,60 L -60,60 Q -80,60 -80,40 L -80,-40 Q -80,-60 -60,-60 Z" />
      <!-- Q tail -->
      <path d="M 40,80 L 100,140" stroke="url(#goldGradient)" stroke-width="60" stroke-linecap="round"/>
      
      <!-- C overlapping -->
      <path d="M 60,-120 Q -20,-120 -20,-40 L -20,40 Q -20,120 60,120 L 100,120 L 100,60 L 60,60 Q 40,60 40,40 L 40,-40 Q 40,-60 60,-60 L 100,-60 L 100,-120 L 60,-120 Z" 
            opacity="0.9"/>
    </g>
    
    <!-- Decorative elements -->
    <g opacity="0.4">
      <circle cx="-200" cy="0" r="2" fill="url(#goldGradient)"/>
      <circle cx="200" cy="0" r="2" fill="url(#goldGradient)"/>
      <circle cx="0" cy="-200" r="2" fill="url(#goldGradient)"/>
      <circle cx="0" cy="200" r="2" fill="url(#goldGradient)"/>
    </g>
  </g>
</svg>